<svg width="167" height="167" viewBox="0 0 167 167" fill="none" xmlns="http://www.w3.org/2000/svg">
<path d="M0 0H6.66038V6.66038H0V0ZM6.66038 0H13.3208V6.66038H6.66038V0ZM13.3208 0H19.9811V6.66038H13.3208V0ZM19.9811 0H26.6415V6.66038H19.9811V0ZM26.6415 0H33.3019V6.66038H26.6415V0ZM33.3019 0H39.9623V6.66038H33.3019V0ZM39.9623 0H46.6226V6.66038H39.9623V0ZM59.9434 0H66.6038V6.66038H59.9434V0ZM86.5849 0H93.2453V6.66038H86.5849V0ZM119.887 0H126.547V6.66038H119.887V0ZM126.547 0H133.208V6.66038H126.547V0ZM133.208 0H139.868V6.66038H133.208V0ZM139.868 0H146.528V6.66038H139.868V0ZM146.528 0H153.189V6.66038H146.528V0ZM153.189 0H159.849V6.66038H153.189V0ZM159.849 0H166.509V6.66038H159.849V0ZM0 6.66038H6.66038V13.3208H0V6.66038ZM39.9623 6.66038H46.6226V13.3208H39.9623V6.66038ZM53.283 6.66038H59.9434V13.3208H53.283V6.66038ZM59.9434 6.66038H66.6038V13.3208H59.9434V6.66038ZM73.2642 6.66038H79.9245V13.3208H73.2642V6.66038ZM79.9245 6.66038H86.5849V13.3208H79.9245V6.66038ZM86.5849 6.66038H93.2453V13.3208H86.5849V6.66038ZM93.2453 6.66038H99.9057V13.3208H93.2453V6.66038ZM99.9057 6.66038H106.566V13.3208H99.9057V6.66038ZM119.887 6.66038H126.547V13.3208H119.887V6.66038ZM159.849 6.66038H166.509V13.3208H159.849V6.66038ZM0 13.3208H6.66038V19.9811H0V13.3208ZM13.3208 13.3208H19.9811V19.9811H13.3208V13.3208ZM19.9811 13.3208H26.6415V19.9811H19.9811V13.3208ZM26.6415 13.3208H33.3019V19.9811H26.6415V13.3208ZM39.9623 13.3208H46.6226V19.9811H39.9623V13.3208ZM59.9434 13.3208H66.6038V19.9811H59.9434V13.3208ZM66.6038 13.3208H73.2642V19.9811H66.6038V13.3208ZM73.2642 13.3208H79.9245V19.9811H73.2642V13.3208ZM93.2453 13.3208H99.9057V19.9811H93.2453V13.3208ZM119.887 13.3208H126.547V19.9811H119.887V13.3208ZM133.208 13.3208H139.868V19.9811H133.208V13.3208ZM139.868 13.3208H146.528V19.9811H139.868V13.3208ZM146.528 13.3208H153.189V19.9811H146.528V13.3208ZM159.849 13.3208H166.509V19.9811H159.849V13.3208ZM0 19.9811H6.66038V26.6415H0V19.9811ZM13.3208 19.9811H19.9811V26.6415H13.3208V19.9811ZM19.9811 19.9811H26.6415V26.6415H19.9811V19.9811ZM26.6415 19.9811H33.3019V26.6415H26.6415V19.9811ZM39.9623 19.9811H46.6226V26.6415H39.9623V19.9811ZM53.283 19.9811H59.9434V26.6415H53.283V19.9811ZM59.9434 19.9811H66.6038V26.6415H59.9434V19.9811ZM73.2642 19.9811H79.9245V26.6415H73.2642V19.9811ZM86.5849 19.9811H93.2453V26.6415H86.5849V19.9811ZM93.2453 19.9811H99.9057V26.6415H93.2453V19.9811ZM99.9057 19.9811H106.566V26.6415H99.9057V19.9811ZM106.566 19.9811H113.226V26.6415H106.566V19.9811ZM119.887 19.9811H126.547V26.6415H119.887V19.9811ZM133.208 19.9811H139.868V26.6415H133.208V19.9811ZM139.868 19.9811H146.528V26.6415H139.868V19.9811ZM146.528 19.9811H153.189V26.6415H146.528V19.9811ZM159.849 19.9811H166.509V26.6415H159.849V19.9811ZM0 26.6415H6.66038V33.3019H0V26.6415ZM13.3208 26.6415H19.9811V33.3019H13.3208V26.6415ZM19.9811 26.6415H26.6415V33.3019H19.9811V26.6415ZM26.6415 26.6415H33.3019V33.3019H26.6415V26.6415ZM39.9623 26.6415H46.6226V33.3019H39.9623V26.6415ZM66.6038 26.6415H73.2642V33.3019H66.6038V26.6415ZM79.9245 26.6415H86.5849V33.3019H79.9245V26.6415ZM106.566 26.6415H113.226V33.3019H106.566V26.6415ZM119.887 26.6415H126.547V33.3019H119.887V26.6415ZM133.208 26.6415H139.868V33.3019H133.208V26.6415ZM139.868 26.6415H146.528V33.3019H139.868V26.6415ZM146.528 26.6415H153.189V33.3019H146.528V26.6415ZM159.849 26.6415H166.509V33.3019H159.849V26.6415ZM0 33.3019H6.66038V39.9623H0V33.3019ZM39.9623 33.3019H46.6226V39.9623H39.9623V33.3019ZM53.283 33.3019H59.9434V39.9623H53.283V33.3019ZM66.6038 33.3019H73.2642V39.9623H66.6038V33.3019ZM93.2453 33.3019H99.9057V39.9623H93.2453V33.3019ZM99.9057 33.3019H106.566V39.9623H99.9057V33.3019ZM119.887 33.3019H126.547V39.9623H119.887V33.3019ZM159.849 33.3019H166.509V39.9623H159.849V33.3019ZM0 39.9623H6.66038V46.6226H0V39.9623ZM6.66038 39.9623H13.3208V46.6226H6.66038V39.9623ZM13.3208 39.9623H19.9811V46.6226H13.3208V39.9623ZM19.9811 39.9623H26.6415V46.6226H19.9811V39.9623ZM26.6415 39.9623H33.3019V46.6226H26.6415V39.9623ZM33.3019 39.9623H39.9623V46.6226H33.3019V39.9623ZM39.9623 39.9623H46.6226V46.6226H39.9623V39.9623ZM53.283 39.9623H59.9434V46.6226H53.283V39.9623ZM66.6038 39.9623H73.2642V46.6226H66.6038V39.9623ZM79.9245 39.9623H86.5849V46.6226H79.9245V39.9623ZM93.2453 39.9623H99.9057V46.6226H93.2453V39.9623ZM106.566 39.9623H113.226V46.6226H106.566V39.9623ZM119.887 39.9623H126.547V46.6226H119.887V39.9623ZM126.547 39.9623H133.208V46.6226H126.547V39.9623ZM133.208 39.9623H139.868V46.6226H133.208V39.9623ZM139.868 39.9623H146.528V46.6226H139.868V39.9623ZM146.528 39.9623H153.189V46.6226H146.528V39.9623ZM153.189 39.9623H159.849V46.6226H153.189V39.9623ZM159.849 39.9623H166.509V46.6226H159.849V39.9623ZM79.9245 46.6226H86.5849V53.283H79.9245V46.6226ZM93.2453 46.6226H99.9057V53.283H93.2453V46.6226ZM0 53.283H6.66038V59.9434H0V53.283ZM6.66038 53.283H13.3208V59.9434H6.66038V53.283ZM13.3208 53.283H19.9811V59.9434H13.3208V53.283ZM19.9811 53.283H26.6415V59.9434H19.9811V53.283ZM26.6415 53.283H33.3019V59.9434H26.6415V53.283ZM39.9623 53.283H46.6226V59.9434H39.9623V53.283ZM46.6226 53.283H53.283V59.9434H46.6226V53.283ZM53.283 53.283H59.9434V59.9434H53.283V53.283ZM59.9434 53.283H66.6038V59.9434H59.9434V53.283ZM66.6038 53.283H73.2642V59.9434H66.6038V53.283ZM79.9245 53.283H86.5849V59.9434H79.9245V53.283ZM86.5849 53.283H93.2453V59.9434H86.5849V53.283ZM93.2453 53.283H99.9057V59.9434H93.2453V53.283ZM99.9057 53.283H106.566V59.9434H99.9057V53.283ZM113.226 53.283H119.887V59.9434H113.226V53.283ZM126.547 53.283H133.208V59.9434H126.547V53.283ZM139.868 53.283H146.528V59.9434H139.868V53.283ZM153.189 53.283H159.849V59.9434H153.189V53.283ZM19.9811 59.9434H26.6415V66.6038H19.9811V59.9434ZM26.6415 59.9434H33.3019V66.6038H26.6415V59.9434ZM33.3019 59.9434H39.9623V66.6038H33.3019V59.9434ZM46.6226 59.9434H53.283V66.6038H46.6226V59.9434ZM59.9434 59.9434H66.6038V66.6038H59.9434V59.9434ZM86.5849 59.9434H93.2453V66.6038H86.5849V59.9434ZM93.2453 59.9434H99.9057V66.6038H93.2453V59.9434ZM106.566 59.9434H113.226V66.6038H106.566V59.9434ZM113.226 59.9434H119.887V66.6038H113.226V59.9434ZM126.547 59.9434H133.208V66.6038H126.547V59.9434ZM139.868 59.9434H146.528V66.6038H139.868V59.9434ZM26.6415 66.6038H33.3019V73.2642H26.6415V66.6038ZM33.3019 66.6038H39.9623V73.2642H33.3019V66.6038ZM39.9623 66.6038H46.6226V73.2642H39.9623V66.6038ZM53.283 66.6038H59.9434V73.2642H53.283V66.6038ZM59.9434 66.6038H66.6038V73.2642H59.9434V66.6038ZM73.2642 66.6038H79.9245V73.2642H73.2642V66.6038ZM79.9245 66.6038H86.5849V73.2642H79.9245V66.6038ZM99.9057 66.6038H106.566V73.2642H99.9057V66.6038ZM113.226 66.6038H119.887V73.2642H113.226V66.6038ZM119.887 66.6038H126.547V73.2642H119.887V66.6038ZM126.547 66.6038H133.208V73.2642H126.547V66.6038ZM146.528 66.6038H153.189V73.2642H146.528V66.6038ZM153.189 66.6038H159.849V73.2642H153.189V66.6038ZM159.849 66.6038H166.509V73.2642H159.849V66.6038ZM0 73.2642H6.66038V79.9245H0V73.2642ZM6.66038 73.2642H13.3208V79.9245H6.66038V73.2642ZM13.3208 73.2642H19.9811V79.9245H13.3208V73.2642ZM33.3019 73.2642H39.9623V79.9245H33.3019V73.2642ZM59.9434 73.2642H66.6038V79.9245H59.9434V73.2642ZM66.6038 73.2642H73.2642V79.9245H66.6038V73.2642ZM73.2642 73.2642H79.9245V79.9245H73.2642V73.2642ZM106.566 73.2642H113.226V79.9245H106.566V73.2642ZM119.887 73.2642H126.547V79.9245H119.887V73.2642ZM153.189 73.2642H159.849V79.9245H153.189V73.2642ZM6.66038 79.9245H13.3208V86.5849H6.66038V79.9245ZM26.6415 79.9245H33.3019V86.5849H26.6415V79.9245ZM39.9623 79.9245H46.6226V86.5849H39.9623V79.9245ZM46.6226 79.9245H53.283V86.5849H46.6226V79.9245ZM59.9434 79.9245H66.6038V86.5849H59.9434V79.9245ZM73.2642 79.9245H79.9245V86.5849H73.2642V79.9245ZM79.9245 79.9245H86.5849V86.5849H79.9245V79.9245ZM86.5849 79.9245H93.2453V86.5849H86.5849V79.9245ZM93.2453 79.9245H99.9057V86.5849H93.2453V79.9245ZM119.887 79.9245H126.547V86.5849H119.887V79.9245ZM133.208 79.9245H139.868V86.5849H133.208V79.9245ZM139.868 79.9245H146.528V86.5849H139.868V79.9245ZM146.528 79.9245H153.189V86.5849H146.528V79.9245ZM153.189 79.9245H159.849V86.5849H153.189V79.9245ZM0 86.5849H6.66038V93.2453H0V86.5849ZM6.66038 86.5849H13.3208V93.2453H6.66038V86.5849ZM26.6415 86.5849H33.3019V93.2453H26.6415V86.5849ZM46.6226 86.5849H53.283V93.2453H46.6226V86.5849ZM59.9434 86.5849H66.6038V93.2453H59.9434V86.5849ZM66.6038 86.5849H73.2642V93.2453H66.6038V86.5849ZM79.9245 86.5849H86.5849V93.2453H79.9245V86.5849ZM93.2453 86.5849H99.9057V93.2453H93.2453V86.5849ZM126.547 86.5849H133.208V93.2453H126.547V86.5849ZM139.868 86.5849H146.528V93.2453H139.868V86.5849ZM146.528 86.5849H153.189V93.2453H146.528V86.5849ZM0 93.2453H6.66038V99.9057H0V93.2453ZM13.3208 93.2453H19.9811V99.9057H13.3208V93.2453ZM33.3019 93.2453H39.9623V99.9057H33.3019V93.2453ZM39.9623 93.2453H46.6226V99.9057H39.9623V93.2453ZM46.6226 93.2453H53.283V99.9057H46.6226V93.2453ZM53.283 93.2453H59.9434V99.9057H53.283V93.2453ZM59.9434 93.2453H66.6038V99.9057H59.9434V93.2453ZM66.6038 93.2453H73.2642V99.9057H66.6038V93.2453ZM79.9245 93.2453H86.5849V99.9057H79.9245V93.2453ZM99.9057 93.2453H106.566V99.9057H99.9057V93.2453ZM106.566 93.2453H113.226V99.9057H106.566V93.2453ZM113.226 93.2453H119.887V99.9057H113.226V93.2453ZM126.547 93.2453H133.208V99.9057H126.547V93.2453ZM146.528 93.2453H153.189V99.9057H146.528V93.2453ZM153.189 93.2453H159.849V99.9057H153.189V93.2453ZM159.849 93.2453H166.509V99.9057H159.849V93.2453ZM0 99.9057H6.66038V106.566H0V99.9057ZM26.6415 99.9057H33.3019V106.566H26.6415V99.9057ZM53.283 99.9057H59.9434V106.566H53.283V99.9057ZM59.9434 99.9057H66.6038V106.566H59.9434V99.9057ZM66.6038 99.9057H73.2642V106.566H66.6038V99.9057ZM73.2642 99.9057H79.9245V106.566H73.2642V99.9057ZM79.9245 99.9057H86.5849V106.566H79.9245V99.9057ZM99.9057 99.9057H106.566V106.566H99.9057V99.9057ZM106.566 99.9057H113.226V106.566H106.566V99.9057ZM126.547 99.9057H133.208V106.566H126.547V99.9057ZM0 106.566H6.66038V113.226H0V106.566ZM26.6415 106.566H33.3019V113.226H26.6415V106.566ZM33.3019 106.566H39.9623V113.226H33.3019V106.566ZM39.9623 106.566H46.6226V113.226H39.9623V106.566ZM46.6226 106.566H53.283V113.226H46.6226V106.566ZM66.6038 106.566H73.2642V113.226H66.6038V106.566ZM86.5849 106.566H93.2453V113.226H86.5849V106.566ZM93.2453 106.566H99.9057V113.226H93.2453V106.566ZM106.566 106.566H113.226V113.226H106.566V106.566ZM113.226 106.566H119.887V113.226H113.226V106.566ZM119.887 106.566H126.547V113.226H119.887V106.566ZM126.547 106.566H133.208V113.226H126.547V106.566ZM133.208 106.566H139.868V113.226H133.208V106.566ZM139.868 106.566H146.528V113.226H139.868V106.566ZM146.528 106.566H153.189V113.226H146.528V106.566ZM159.849 106.566H166.509V113.226H159.849V106.566ZM53.283 113.226H59.9434V119.887H53.283V113.226ZM59.9434 113.226H66.6038V119.887H59.9434V113.226ZM66.6038 113.226H73.2642V119.887H66.6038V113.226ZM73.2642 113.226H79.9245V119.887H73.2642V113.226ZM86.5849 113.226H93.2453V119.887H86.5849V113.226ZM99.9057 113.226H106.566V119.887H99.9057V113.226ZM106.566 113.226H113.226V119.887H106.566V113.226ZM133.208 113.226H139.868V119.887H133.208V113.226ZM153.189 113.226H159.849V119.887H153.189V113.226ZM0 119.887H6.66038V126.547H0V119.887ZM6.66038 119.887H13.3208V126.547H6.66038V119.887ZM13.3208 119.887H19.9811V126.547H13.3208V119.887ZM19.9811 119.887H26.6415V126.547H19.9811V119.887ZM26.6415 119.887H33.3019V126.547H26.6415V119.887ZM33.3019 119.887H39.9623V126.547H33.3019V119.887ZM39.9623 119.887H46.6226V126.547H39.9623V119.887ZM53.283 119.887H59.9434V126.547H53.283V119.887ZM59.9434 119.887H66.6038V126.547H59.9434V119.887ZM93.2453 119.887H99.9057V126.547H93.2453V119.887ZM106.566 119.887H113.226V126.547H106.566V119.887ZM119.887 119.887H126.547V126.547H119.887V119.887ZM133.208 119.887H139.868V126.547H133.208V119.887ZM153.189 119.887H159.849V126.547H153.189V119.887ZM159.849 119.887H166.509V126.547H159.849V119.887ZM0 126.547H6.66038V133.208H0V126.547ZM39.9623 126.547H46.6226V133.208H39.9623V126.547ZM59.9434 126.547H66.6038V133.208H59.9434V126.547ZM106.566 126.547H113.226V133.208H106.566V126.547ZM133.208 126.547H139.868V133.208H133.208V126.547ZM0 133.208H6.66038V139.868H0V133.208ZM13.3208 133.208H19.9811V139.868H13.3208V133.208ZM19.9811 133.208H26.6415V139.868H19.9811V133.208ZM26.6415 133.208H33.3019V139.868H26.6415V133.208ZM39.9623 133.208H46.6226V139.868H39.9623V133.208ZM53.283 133.208H59.9434V139.868H53.283V133.208ZM66.6038 133.208H73.2642V139.868H66.6038V133.208ZM79.9245 133.208H86.5849V139.868H79.9245V133.208ZM86.5849 133.208H93.2453V139.868H86.5849V133.208ZM93.2453 133.208H99.9057V139.868H93.2453V133.208ZM99.9057 133.208H106.566V139.868H99.9057V133.208ZM106.566 133.208H113.226V139.868H106.566V133.208ZM113.226 133.208H119.887V139.868H113.226V133.208ZM119.887 133.208H126.547V139.868H119.887V133.208ZM126.547 133.208H133.208V139.868H126.547V133.208ZM133.208 133.208H139.868V139.868H133.208V133.208ZM146.528 133.208H153.189V139.868H146.528V133.208ZM0 139.868H6.66038V146.528H0V139.868ZM13.3208 139.868H19.9811V146.528H13.3208V139.868ZM19.9811 139.868H26.6415V146.528H19.9811V139.868ZM26.6415 139.868H33.3019V146.528H26.6415V139.868ZM39.9623 139.868H46.6226V146.528H39.9623V139.868ZM53.283 139.868H59.9434V146.528H53.283V139.868ZM73.2642 139.868H79.9245V146.528H73.2642V139.868ZM86.5849 139.868H93.2453V146.528H86.5849V139.868ZM106.566 139.868H113.226V146.528H106.566V139.868ZM113.226 139.868H119.887V146.528H113.226V139.868ZM119.887 139.868H126.547V146.528H119.887V139.868ZM133.208 139.868H139.868V146.528H133.208V139.868ZM153.189 139.868H159.849V146.528H153.189V139.868ZM159.849 139.868H166.509V146.528H159.849V139.868ZM0 146.528H6.66038V153.189H0V146.528ZM13.3208 146.528H19.9811V153.189H13.3208V146.528ZM19.9811 146.528H26.6415V153.189H19.9811V146.528ZM26.6415 146.528H33.3019V153.189H26.6415V146.528ZM39.9623 146.528H46.6226V153.189H39.9623V146.528ZM53.283 146.528H59.9434V153.189H53.283V146.528ZM59.9434 146.528H66.6038V153.189H59.9434V146.528ZM79.9245 146.528H86.5849V153.189H79.9245V146.528ZM86.5849 146.528H93.2453V153.189H86.5849V146.528ZM93.2453 146.528H99.9057V153.189H93.2453V146.528ZM106.566 146.528H113.226V153.189H106.566V146.528ZM126.547 146.528H133.208V153.189H126.547V146.528ZM139.868 146.528H146.528V153.189H139.868V146.528ZM159.849 146.528H166.509V153.189H159.849V146.528ZM0 153.189H6.66038V159.849H0V153.189ZM39.9623 153.189H46.6226V159.849H39.9623V153.189ZM53.283 153.189H59.9434V159.849H53.283V153.189ZM59.9434 153.189H66.6038V159.849H59.9434V153.189ZM73.2642 153.189H79.9245V159.849H73.2642V153.189ZM79.9245 153.189H86.5849V159.849H79.9245V153.189ZM93.2453 153.189H99.9057V159.849H93.2453V153.189ZM99.9057 153.189H106.566V159.849H99.9057V153.189ZM106.566 153.189H113.226V159.849H106.566V153.189ZM119.887 153.189H126.547V159.849H119.887V153.189ZM126.547 153.189H133.208V159.849H126.547V153.189ZM133.208 153.189H139.868V159.849H133.208V153.189ZM159.849 153.189H166.509V159.849H159.849V153.189ZM0 159.849H6.66038V166.509H0V159.849ZM6.66038 159.849H13.3208V166.509H6.66038V159.849ZM13.3208 159.849H19.9811V166.509H13.3208V159.849ZM19.9811 159.849H26.6415V166.509H19.9811V159.849ZM26.6415 159.849H33.3019V166.509H26.6415V159.849ZM33.3019 159.849H39.9623V166.509H33.3019V159.849ZM39.9623 159.849H46.6226V166.509H39.9623V159.849ZM53.283 159.849H59.9434V166.509H53.283V159.849ZM66.6038 159.849H73.2642V166.509H66.6038V159.849ZM86.5849 159.849H93.2453V166.509H86.5849V159.849ZM93.2453 159.849H99.9057V166.509H93.2453V159.849ZM113.226 159.849H119.887V166.509H113.226V159.849ZM146.528 159.849H153.189V166.509H146.528V159.849ZM153.189 159.849H159.849V166.509H153.189V159.849ZM159.849 159.849H166.509V166.509H159.849V159.849Z" fill="#76797B"/>
</svg>
